<svg id="Layer_1" data-name="Layer 1" xmlns="http://www.w3.org/2000/svg" viewBox="0 0 28 28"><defs><style>.cls-1{fill:#613842;}.cls-2{fill:#fff;}</style></defs><rect class="cls-1" width="28" height="28" rx="3.43"/><path class="cls-2" d="M6.93,5.4h8.4a5.53,5.53,0,0,1,3.79,1.21,4.36,4.36,0,0,1,1.37,3.48A4.21,4.21,0,0,1,20,12.17a4,4,0,0,1-1.44,1.49,3.77,3.77,0,0,1,1.9,1.41,4.29,4.29,0,0,1,.64,2.46,5.1,5.1,0,0,1-.69,2.73A4.76,4.76,0,0,1,18.45,22a5.94,5.94,0,0,1-2.72.6H6.93Zm7.69,7a2.31,2.31,0,0,0,1.54-.49,2,2,0,0,0,.54-1.54,2,2,0,0,0-.54-1.62,2.71,2.71,0,0,0-1.68-.44H10.66v4.12Zm.22,7.34a3,3,0,0,0,1.81-.48,2,2,0,0,0,.62-1.68,2.15,2.15,0,0,0-.63-1.75,2.93,2.93,0,0,0-1.92-.54H10.66v4.45Z"/></svg>